<svg xmlns="http://www.w3.org/2000/svg" xmlns:svg="http://www.w3.org/2000/svg" xmlns:xlink="http://www.w3.org/1999/xlink" id="svg2872" width="283.289" height="283.288" version="1.1"><metadata id="metadata2942"/><defs id="defs2874"><radialGradient id="radialGradient3033" cx="182.984" cy="395.049" r="148.953" fx="182.984" fy="395.049" gradientTransform="matrix(0.22914334,-0.24901479,0.7643572,0.83064268,-272.85337,-159.69482)" gradientUnits="userSpaceOnUse" xlink:href="#linearGradient3755"/><linearGradient id="linearGradient3755"><stop id="stop3757" style="stop-color:#008cbe;stop-opacity:1" offset="0"/><stop id="stop3759" style="stop-color:#b2ffff;stop-opacity:1" offset="1"/></linearGradient><radialGradient id="radialGradient2996" cx="182.984" cy="395.049" r="148.953" fx="182.984" fy="395.049" gradientTransform="matrix(0.22914334,-0.24901479,0.7643572,0.83064268,-272.85338,-159.69482)" gradientUnits="userSpaceOnUse" xlink:href="#linearGradient3755"/><linearGradient id="linearGradient2994"><stop id="stop2996" style="stop-color:#000;stop-opacity:1" offset="0"/><stop id="stop2998" style="stop-color:#c9c9c9;stop-opacity:1" offset="1"/></linearGradient><linearGradient id="linearGradient2974"><stop id="stop2976" style="stop-color:#c1c1c1;stop-opacity:1" offset="0"/><stop id="stop2978" style="stop-color:#acacac;stop-opacity:1" offset="1"/></linearGradient><linearGradient id="linearGradient2966"><stop id="stop2968" style="stop-color:#ffd1d1;stop-opacity:1" offset="0"/><stop id="stop3006" style="stop-color:#ff1d1d;stop-opacity:1" offset=".5"/><stop id="stop2970" style="stop-color:#6f0000;stop-opacity:1" offset="1"/></linearGradient><linearGradient id="linearGradient2846"><stop id="stop2848" style="stop-color:#8a8a8a;stop-opacity:1" offset="0"/><stop id="stop2850" style="stop-color:#484848;stop-opacity:1" offset="1"/></linearGradient><linearGradient id="linearGradient2366"><stop id="stop2368" style="stop-color:#fff;stop-opacity:1" offset="0"/><stop id="stop2374" style="stop-color:#fff;stop-opacity:.21904762" offset=".5"/><stop id="stop2370" style="stop-color:#fff;stop-opacity:1" offset="1"/></linearGradient><linearGradient id="linearGradient4467"><stop id="stop4469" style="stop-color:#fff;stop-opacity:1" offset="0"/><stop id="stop4471" style="stop-color:#fff;stop-opacity:.24761905" offset="1"/></linearGradient><linearGradient id="linearGradient4454"><stop id="stop4456" style="stop-color:#729fcf;stop-opacity:.20784314" offset="0"/><stop id="stop4458" style="stop-color:#729fcf;stop-opacity:.6761905" offset="1"/></linearGradient><linearGradient id="linearGradient4440"><stop id="stop4442" style="stop-color:#7d7d7d;stop-opacity:1" offset="0"/><stop id="stop4448" style="stop-color:#b1b1b1;stop-opacity:1" offset=".5"/><stop id="stop4444" style="stop-color:#686868;stop-opacity:1" offset="1"/></linearGradient><radialGradient id="radialGradient4548" cx="24.307" cy="42.078" r="15.822" fx="24.307" fy="42.078" gradientTransform="matrix(1,0,0,0.284916,0,30.08928)" gradientUnits="userSpaceOnUse" xlink:href="#linearGradient4542"/><linearGradient id="linearGradient259"><stop id="stop260" style="stop-color:#fafafa;stop-opacity:1" offset="0"/><stop id="stop261" style="stop-color:#bbb;stop-opacity:1" offset="1"/></linearGradient><linearGradient id="linearGradient269"><stop id="stop270" style="stop-color:#a3a3a3;stop-opacity:1" offset="0"/><stop id="stop271" style="stop-color:#4c4c4c;stop-opacity:1" offset="1"/></linearGradient><radialGradient id="aigrd2" cx="20.892" cy="114.568" r="5.256" fx="20.892" fy="114.568" gradientUnits="userSpaceOnUse"><stop id="stop15566" style="stop-color:#f0f0f0;stop-opacity:1" offset="0"/><stop id="stop15568" style="stop-color:#9a9a9a;stop-opacity:1" offset="1"/></radialGradient><radialGradient id="aigrd3" cx="20.892" cy="64.568" r="5.257" fx="20.892" fy="64.568" gradientUnits="userSpaceOnUse"><stop id="stop15573" style="stop-color:#f0f0f0;stop-opacity:1" offset="0"/><stop id="stop15575" style="stop-color:#9a9a9a;stop-opacity:1" offset="1"/></radialGradient><linearGradient id="linearGradient15662"><stop id="stop15664" style="stop-color:#fff;stop-opacity:1" offset="0"/><stop id="stop15666" style="stop-color:#f8f8f8;stop-opacity:1" offset="1"/></linearGradient><linearGradient id="linearGradient4542"><stop id="stop4544" style="stop-color:#000;stop-opacity:1" offset="0"/><stop id="stop4546" style="stop-color:#000;stop-opacity:0" offset="1"/></linearGradient><linearGradient id="linearGradient5048"><stop id="stop5050" style="stop-color:#000;stop-opacity:0" offset="0"/><stop id="stop5056" style="stop-color:#000;stop-opacity:1" offset=".5"/><stop id="stop5052" style="stop-color:#000;stop-opacity:0" offset="1"/></linearGradient><radialGradient id="radialGradient3540" cx="33.967" cy="35.737" r="86.708" fx="33.967" fy="35.737" gradientTransform="scale(0.960493,1.041132)" gradientUnits="userSpaceOnUse" xlink:href="#linearGradient259"/><radialGradient id="radialGradient3542" cx="8.824" cy="3.756" r="37.752" fx="8.824" fy="3.756" gradientTransform="matrix(0.968273,0,0,1.032767,3.353553,0.646447)" gradientUnits="userSpaceOnUse" xlink:href="#linearGradient269"/><radialGradient id="radialGradient3544" cx="8.144" cy="7.268" r="38.159" fx="8.144" fy="7.268" gradientTransform="matrix(0.968273,0,0,1.032767,3.353553,0.646447)" gradientUnits="userSpaceOnUse" xlink:href="#linearGradient15662"/><radialGradient id="radialGradient3546" cx="20.892" cy="114.568" r="5.256" fx="20.892" fy="114.568" gradientTransform="matrix(0.229703,0,0,0.229703,4.613529,3.979808)" gradientUnits="userSpaceOnUse" xlink:href="#aigrd2"/><radialGradient id="radialGradient3548" cx="20.892" cy="64.568" r="5.257" fx="20.892" fy="64.568" gradientTransform="matrix(0.229703,0,0,0.229703,4.613529,3.979808)" gradientUnits="userSpaceOnUse" xlink:href="#aigrd3"/><filter id="filter3938" width="1" height="1" x="0" y="0" color-interpolation-filters="sRGB"><feColorMatrix id="feColorMatrix3940" result="result1" type="saturate" values="0"/><feFlood id="feFlood3942" flood-color="#096F98" result="result2"/><feBlend id="feBlend3944" in2="result1" mode="screen" result="result2"/><feComposite id="feComposite3946" in="result2" in2="SourceGraphic" operator="in"/></filter><filter id="filter3948" width="1" height="1" x="0" y="0" color-interpolation-filters="sRGB"><feColorMatrix id="feColorMatrix3950" result="result1" type="saturate" values="0"/><feFlood id="feFlood3952" flood-color="#096F98" result="result2"/><feBlend id="feBlend3954" in2="result1" mode="screen" result="result2"/><feComposite id="feComposite3956" in="result2" in2="SourceGraphic" operator="in"/></filter><filter id="filter3958" width="1" height="1" x="0" y="0" color-interpolation-filters="sRGB"><feColorMatrix id="feColorMatrix3960" result="result1" type="saturate" values="0"/><feFlood id="feFlood3962" flood-color="#096F98" result="result2"/><feBlend id="feBlend3964" in2="result1" mode="screen" result="result2"/><feComposite id="feComposite3966" in="result2" in2="SourceGraphic" operator="in"/></filter><filter id="filter3968" width="1" height="1" x="0" y="0" color-interpolation-filters="sRGB"><feColorMatrix id="feColorMatrix3970" result="result1" type="saturate" values="0"/><feFlood id="feFlood3972" flood-color="#096F98" result="result2"/><feBlend id="feBlend3974" in2="result1" mode="screen" result="result2"/><feComposite id="feComposite3976" in="result2" in2="SourceGraphic" operator="in"/></filter><filter id="filter3978" width="1" height="1" x="0" y="0" color-interpolation-filters="sRGB"><feColorMatrix id="feColorMatrix3980" result="result1" type="saturate" values="0"/><feFlood id="feFlood3982" flood-color="#096F98" result="result2"/><feBlend id="feBlend3984" in2="result1" mode="screen" result="result2"/><feComposite id="feComposite3986" in="result2" in2="SourceGraphic" operator="in"/></filter><filter id="filter3988" width="1" height="1" x="0" y="0" color-interpolation-filters="sRGB"><feColorMatrix id="feColorMatrix3990" result="result1" type="saturate" values="0"/><feFlood id="feFlood3992" flood-color="#096F98" result="result2"/><feBlend id="feBlend3994" in2="result1" mode="screen" result="result2"/><feComposite id="feComposite3996" in="result2" in2="SourceGraphic" operator="in"/></filter></defs><g id="g3025" transform="matrix(8.4519723,0,0,8.4519723,-511.80556,-794.54777)"><path id="path5874" d="m 66.432104,97.488677 c -5.19584,5.646433 -3.93661,16.169033 2.81107,23.501873 6.74768,7.33285 16.42898,8.69955 21.624826,3.05312 5.19585,-5.64643 3.9402,-16.16946 -2.807486,-23.5023 -6.74768,-7.332863 -16.43256,-8.699133 -21.62841,-3.052693 z m 4.71149,2.34553 c 4.08256,-4.43659 11.589,-3.47152 16.76741,2.155963 5.178416,5.6275 6.066466,13.78491 1.983906,18.2215 -4.082556,4.43658 -11.590966,3.47369 -16.769386,-2.15381 -5.17842,-5.6275 -6.06449,-13.78704 -1.98193,-18.223653 z" style="fill:url(#radialGradient2996);fill-opacity:1;stroke:none"/><rect id="rect5876" width="4.35" height="4.35" x="85.382" y="99.494" rx=".77" ry=".77" style="fill:#ff7f2a;fill-opacity:1;fill-rule:nonzero;stroke:#d45500;stroke-width:.74403799;stroke-miterlimit:4;stroke-dasharray:none;filter:url(#filter3988)"/><g id="g2679" transform="matrix(0.60392126,0,0,0.60392126,68.46259,92.384932)"><rect id="rect15391" width="34.875" height="40.92" x="6.604" y="3.646" rx="1.145" ry="1.147" transform="matrix(1.003584,0,0,1.001943,-0.12722,-0.153534)" style="color:#000;fill:url(#radialGradient3540);fill-opacity:1;fill-rule:nonzero;stroke:url(#radialGradient3542);stroke-width:.99724436;stroke-linecap:round;stroke-linejoin:round;stroke-miterlimit:4;stroke-opacity:1;stroke-dashoffset:0;marker:none;visibility:visible;display:block;overflow:visible;filter:url(#filter3978)"/><rect id="rect15660" width="32.776" height="38.946" x="7.666" y="4.584" rx=".149" ry=".149" transform="matrix(1.003584,0,0,1.001943,-0.12722,-0.153534)" style="color:#000;fill:none;stroke:url(#radialGradient3544);stroke-width:.99724436;stroke-linecap:round;stroke-linejoin:round;stroke-miterlimit:4;stroke-opacity:1;stroke-dashoffset:0;marker:none;visibility:visible;display:block;overflow:visible;filter:url(#filter3968)"/><g id="g2270" transform="translate(0.646447,-0.03798933)" style="display:inline;filter:url(#filter3958)"><g id="g1440" transform="matrix(0.229703,0,0,0.229703,4.967081,4.244972)" style="fill:#fff;fill-opacity:1;fill-rule:nonzero;stroke:#000;stroke-miterlimit:4"><radialGradient id="radialGradient1442" cx="20.892" cy="114.568" r="5.256" fx="20.892" fy="114.568" gradientUnits="userSpaceOnUse"><stop id="stop1444" style="stop-color:#f0f0f0;stop-opacity:1" offset="0"/><stop id="stop1446" style="stop-color:#474747;stop-opacity:1" offset="1"/></radialGradient><path id="path1448" d="m 23.428,113.07 c 0,1.973 -1.6,3.572 -3.573,3.572 -1.974,0 -3.573,-1.6 -3.573,-3.572 0,-1.974 1.6,-3.573 3.573,-3.573 1.973,0 3.573,1.6 3.573,3.573 z" style="stroke:none"/><radialGradient id="radialGradient1450" cx="20.892" cy="64.568" r="5.257" fx="20.892" fy="64.568" gradientUnits="userSpaceOnUse"><stop id="stop1452" style="stop-color:#f0f0f0;stop-opacity:1" offset="0"/><stop id="stop1454" style="stop-color:#474747;stop-opacity:1" offset="1"/></radialGradient><path id="path1456" d="m 23.428,63.07 c 0,1.973 -1.6,3.573 -3.573,3.573 -1.974,0 -3.573,-1.6 -3.573,-3.573 0,-1.974 1.6,-3.573 3.573,-3.573 1.973,0 3.573,1.6 3.573,3.573 z" style="stroke:none"/></g><path id="path15570" d="m 9.9950109,29.952326 c 0,0.453204 -0.3675248,0.820499 -0.8207288,0.820499 -0.4534338,0 -0.8207289,-0.367524 -0.8207289,-0.820499 0,-0.453434 0.3675248,-0.820729 0.8207289,-0.820729 0.453204,0 0.8207288,0.367525 0.8207288,0.820729 z" style="fill:url(#radialGradient3546);fill-rule:nonzero;stroke:none"/><path id="path15577" d="m 9.9950109,18.467176 c 0,0.453204 -0.3675248,0.820729 -0.8207288,0.820729 -0.4534338,0 -0.8207289,-0.367525 -0.8207289,-0.820729 0,-0.453434 0.3675248,-0.820729 0.8207289,-0.820729 0.453204,0 0.8207288,0.367525 0.8207288,0.820729 z" style="fill:url(#radialGradient3548);fill-rule:nonzero;stroke:none"/></g><g id="g2253" transform="matrix(0.909091,0,0,1,2.363628,0)" style="filter:url(#filter3948)"><rect id="rect15686" width="22" height="1" x="15" y="9" rx=".152" ry=".065" style="color:#000;fill:#9b9b9b;fill-opacity:.54970757;fill-rule:nonzero;stroke:none;stroke-width:1;marker:none;visibility:visible;display:block;overflow:visible"/><rect id="rect15688" width="22" height="1" x="15" y="11" rx=".152" ry=".065" style="color:#000;fill:#9b9b9b;fill-opacity:.54970757;fill-rule:nonzero;stroke:none;stroke-width:1;marker:none;visibility:visible;display:block;overflow:visible"/><rect id="rect15690" width="22" height="1" x="15" y="13" rx=".152" ry=".065" style="color:#000;fill:#9b9b9b;fill-opacity:.54970757;fill-rule:nonzero;stroke:none;stroke-width:1;marker:none;visibility:visible;display:block;overflow:visible"/><rect id="rect15692" width="22" height="1" x="15" y="15" rx=".152" ry=".065" style="color:#000;fill:#9b9b9b;fill-opacity:.54970757;fill-rule:nonzero;stroke:none;stroke-width:1;marker:none;visibility:visible;display:block;overflow:visible"/><rect id="rect15694" width="22" height="1" x="15" y="17" rx=".152" ry=".065" style="color:#000;fill:#9b9b9b;fill-opacity:.54970757;fill-rule:nonzero;stroke:none;stroke-width:1;marker:none;visibility:visible;display:block;overflow:visible"/><rect id="rect15696" width="22" height="1" x="15" y="19" rx=".152" ry=".065" style="color:#000;fill:#9b9b9b;fill-opacity:.54970757;fill-rule:nonzero;stroke:none;stroke-width:1;marker:none;visibility:visible;display:block;overflow:visible"/><rect id="rect15698" width="22" height="1" x="15" y="21" rx=".152" ry=".065" style="color:#000;fill:#9b9b9b;fill-opacity:.54970757;fill-rule:nonzero;stroke:none;stroke-width:1;marker:none;visibility:visible;display:block;overflow:visible"/><rect id="rect15700" width="22" height="1" x="15" y="23" rx=".152" ry=".065" style="color:#000;fill:#9b9b9b;fill-opacity:.54970757;fill-rule:nonzero;stroke:none;stroke-width:1;marker:none;visibility:visible;display:block;overflow:visible"/><rect id="rect15732" width="9.9" height="1" x="15" y="25" rx=".068" ry=".065" style="color:#000;fill:#9b9b9b;fill-opacity:.54970757;fill-rule:nonzero;stroke:none;stroke-width:1;marker:none;visibility:visible;display:block;overflow:visible"/><rect id="rect15736" width="22" height="1" x="15" y="29" rx=".152" ry=".065" style="color:#000;fill:#9b9b9b;fill-opacity:.54970757;fill-rule:nonzero;stroke:none;stroke-width:1;marker:none;visibility:visible;display:block;overflow:visible"/><rect id="rect15738" width="22" height="1" x="15" y="31" rx=".152" ry=".065" style="color:#000;fill:#9b9b9b;fill-opacity:.54970757;fill-rule:nonzero;stroke:none;stroke-width:1;marker:none;visibility:visible;display:block;overflow:visible"/><rect id="rect15740" width="22" height="1" x="15" y="33" rx=".152" ry=".065" style="color:#000;fill:#9b9b9b;fill-opacity:.54970757;fill-rule:nonzero;stroke:none;stroke-width:1;marker:none;visibility:visible;display:block;overflow:visible"/><rect id="rect15742" width="22" height="1" x="15" y="35" rx=".152" ry=".065" style="color:#000;fill:#9b9b9b;fill-opacity:.54970757;fill-rule:nonzero;stroke:none;stroke-width:1;marker:none;visibility:visible;display:block;overflow:visible"/><rect id="rect15744" width="15.4" height="1" x="15" y="37" rx=".106" ry=".065" style="color:#000;fill:#9b9b9b;fill-opacity:.54970757;fill-rule:nonzero;stroke:none;stroke-width:1;marker:none;visibility:visible;display:block;overflow:visible"/></g></g><rect id="rect5878" width="10.245" height="10.245" x="60.927" y="105.225" rx="1.813" ry="1.813" style="fill:#ff7f2a;fill-opacity:1;fill-rule:nonzero;stroke:#d45500;stroke-width:.74403799;stroke-miterlimit:4;stroke-dasharray:none"/><rect id="rect5880" width="6.19" height="6.19" x="87.405" y="118.637" rx="1.095" ry="1.095" style="fill:#ff7f2a;fill-opacity:1;fill-rule:nonzero;stroke:#d45500;stroke-width:.74403799;stroke-miterlimit:4;stroke-dasharray:none"/><path id="path1554" d="m -20.25,5.875 c -1.059019,2.63e-5 -2.147637,0.1232356 -3.28125,0.34375 -1.132925,0.2204283 -2.380162,0.5375125 -3.75,1 a 0.13496364,0.13496364 0 0 0 -0.03125,0 0.13496364,0.13496364 0 0 0 -0.03125,0.03125 0.13496364,0.13496364 0 0 0 -0.03125,0.03125 0.13496364,0.13496364 0 0 0 0,0.03125 0.13496364,0.13496364 0 0 0 0,0.03125 l 0,5.15625 a 0.13496364,0.13496364 0 0 0 0,0.03125 0.13496364,0.13496364 0 0 0 0,0.03125 0.13496364,0.13496364 0 0 0 0.03125,0.03125 0.13496364,0.13496364 0 0 0 0.03125,0.03125 0.13496364,0.13496364 0 0 0 0.03125,0 0.13496364,0.13496364 0 0 0 0.03125,0 0.13496364,0.13496364 0 0 0 0.03125,0 0.13496364,0.13496364 0 0 0 0.03125,0 c 1.142438,-0.719043 2.233352,-1.267138 3.28125,-1.625 1.048141,-0.368756 2.043116,-0.562479 2.9375,-0.5625 0.949218,2.1e-5 1.644925,0.210545 2.15625,0.625 0.508723,0.40209 0.781238,0.98304 0.78125,1.71875 -10e-6,0.480657 -0.144188,0.95141 -0.4375,1.4375 -0.282991,0.487016 -0.740265,1.030495 -1.375,1.59375 L -20.9375,16.75 c -1.201459,1.08049 -1.989243,1.991022 -2.375,2.71875 -0.383113,0.711446 -0.562505,1.519324 -0.5625,2.4375 l 0,0.8125 a 0.13496364,0.13496364 0 0 0 0,0.03125 0.13496364,0.13496364 0 0 0 0,0.03125 0.13496364,0.13496364 0 0 0 0.03125,0.03125 0.13496364,0.13496364 0 0 0 0.03125,0.03125 0.13496364,0.13496364 0 0 0 0.03125,0 0.13496364,0.13496364 0 0 0 0.03125,0 l 6.09375,0 a 0.13496364,0.13496364 0 0 0 0.03125,0 0.13496364,0.13496364 0 0 0 0.03125,0 0.13496364,0.13496364 0 0 0 0.03125,-0.03125 0.13496364,0.13496364 0 0 0 0.03125,-0.03125 0.13496364,0.13496364 0 0 0 0,-0.03125 0.13496364,0.13496364 0 0 0 0,-0.03125 l 0,-0.75 c -1.1e-5,-0.468196 0.14837,-0.892849 0.375,-1.28125 0.222295,-0.391284 0.708073,-0.950359 1.46875,-1.625 l 1.0625,-0.9375 c 1.066588,-0.98231 1.830659,-1.884654 2.28125,-2.75 0.449269,-0.874046 0.687482,-1.87342 0.6875,-2.96875 -1.8e-5,-2.126265 -0.743769,-3.7340276 -2.21875,-4.84375 -1.475197,-1.1210252 -3.60624,-1.6874737 -6.375,-1.6875 z m -3.5625,19.15625 a 0.13496364,0.13496364 0 0 0 -0.03125,0.03125 0.13496364,0.13496364 0 0 0 -0.03125,0.03125 0.13496364,0.13496364 0 0 0 0,0.03125 0.13496364,0.13496364 0 0 0 0,0.03125 l 0,5.84375 a 0.13496364,0.13496364 0 0 0 0,0.03125 0.13496364,0.13496364 0 0 0 0,0.03125 0.13496364,0.13496364 0 0 0 0.03125,0.03125 0.13496364,0.13496364 0 0 0 0.03125,0.03125 0.13496364,0.13496364 0 0 0 0.03125,0 0.13496364,0.13496364 0 0 0 0.03125,0 l 6.09375,0 a 0.13496364,0.13496364 0 0 0 0.03125,0 0.13496364,0.13496364 0 0 0 0.03125,0 0.13496364,0.13496364 0 0 0 0.03125,-0.03125 0.13496364,0.13496364 0 0 0 0.03125,-0.03125 0.13496364,0.13496364 0 0 0 0,-0.03125 0.13496364,0.13496364 0 0 0 0,-0.03125 l 0,-5.84375 a 0.13496364,0.13496364 0 0 0 0,-0.03125 0.13496364,0.13496364 0 0 0 0,-0.03125 0.13496364,0.13496364 0 0 0 -0.03125,-0.03125 0.13496364,0.13496364 0 0 0 -0.03125,-0.03125 0.13496364,0.13496364 0 0 0 -0.03125,0 0.13496364,0.13496364 0 0 0 -0.03125,0 l -6.09375,0 a 0.13496364,0.13496364 0 0 0 -0.03125,0 0.13496364,0.13496364 0 0 0 -0.03125,0 z" transform="matrix(0.68967077,0,0,0.67775017,97.54001,93.616121)" style="font-size:34.15322876px;font-style:normal;font-variant:normal;font-weight:700;font-stretch:normal;text-align:start;line-height:125%;writing-mode:lr-tb;text-anchor:start;fill:#2b1100;fill-opacity:1;stroke:#fff;stroke-width:1.09947276px;stroke-linecap:butt;stroke-linejoin:miter;stroke-opacity:.78612713;filter:url(#filter3938);font-family:Bitstream Vera Sans"/></g></svg>